<svg width="36" height="36" viewBox="0 0 36 36" fill="none" xmlns="http://www.w3.org/2000/svg">
<g clip-path="url(#clip0_116_1697)">
<path d="M18 36C27.9411 36 36 27.9411 36 18C36 8.05887 27.9411 0 18 0C8.05887 0 0 8.05887 0 18C0 27.9411 8.05887 36 18 36Z" fill="#627EEA"/>
<path d="M18.5586 4.5V14.4788L26.9927 18.2475L18.5586 4.5Z" fill="white" fill-opacity="0.602"/>
<path d="M18.5602 4.5L10.125 18.2475L18.5602 14.4788V4.5Z" fill="white"/>
<path d="M18.5586 24.714V31.4944L26.9983 19.818L18.5586 24.714Z" fill="white" fill-opacity="0.602"/>
<path d="M18.5602 31.4944V24.7129L10.125 19.818L18.5602 31.4944Z" fill="white"/>
<path d="M18.5586 23.1446L26.9927 18.2475L18.5586 14.481V23.1446Z" fill="white" fill-opacity="0.2"/>
<path d="M10.125 18.2475L18.5602 23.1446V14.481L10.125 18.2475Z" fill="white" fill-opacity="0.602"/>
</g>
<defs>
<clipPath id="clip0_116_1697">
<rect width="36" height="36" fill="white"/>
</clipPath>
</defs>
</svg>
