<svg width="46" height="62" viewBox="0 0 46 62" fill="none" xmlns="http://www.w3.org/2000/svg">
<rect width="7" height="47" rx="3.5" fill="url(#paint0_linear_204_89)"/>
<rect x="29" y="1" width="7" height="46" rx="3.5" fill="url(#paint1_linear_204_89)"/>
<rect x="35.0435" y="40.424" width="6.90426" height="34.5402" rx="3.45213" transform="rotate(90.545 35.0435 40.424)" fill="url(#paint2_linear_204_89)"/>
<rect x="36.0435" y="0.328568" width="6.90426" height="34.5402" rx="3.45213" transform="rotate(90.545 36.0435 0.328568)" fill="url(#paint3_linear_204_89)"/>
<path d="M24.6557 43.8184C24.0214 42.7466 23.3982 41.8597 22.7873 41.1227C22.0252 40.2033 22.8476 37.3509 24.0267 37.5399C26.9683 38.0115 30.1561 38.8942 33.2951 40.5457C38.953 43.5225 42.9535 47.9818 44.962 51.3301C45.4107 52.0781 44.6762 52.8653 43.8599 52.5579L37.3867 50.1201C36.8301 49.9104 36.2146 50.2301 36.066 50.8061L34.0507 58.6171C33.81 59.55 32.5019 59.6442 32.1168 58.761C30.3669 54.7479 27.5217 48.6603 24.6557 43.8184Z" fill="url(#paint4_linear_204_89)"/>
<defs>
<linearGradient id="paint0_linear_204_89" x1="0" y1="23.5" x2="7" y2="23.5" gradientUnits="userSpaceOnUse">
<stop stop-color="#F2994A"/>
<stop offset="1" stop-color="#F2C94C"/>
</linearGradient>
<linearGradient id="paint1_linear_204_89" x1="29" y1="24" x2="36" y2="24" gradientUnits="userSpaceOnUse">
<stop stop-color="#F2994A"/>
<stop offset="1" stop-color="#F2C94C"/>
</linearGradient>
<linearGradient id="paint2_linear_204_89" x1="35.0435" y1="57.6941" x2="41.9478" y2="57.6941" gradientUnits="userSpaceOnUse">
<stop stop-color="#F2994A"/>
<stop offset="1" stop-color="#F2C94C"/>
</linearGradient>
<linearGradient id="paint3_linear_204_89" x1="36.0435" y1="17.5987" x2="42.9478" y2="17.5987" gradientUnits="userSpaceOnUse">
<stop stop-color="#F2994A"/>
<stop offset="1" stop-color="#F2C94C"/>
</linearGradient>
<linearGradient id="paint4_linear_204_89" x1="15" y1="49.2728" x2="46" y2="49.2728" gradientUnits="userSpaceOnUse">
<stop stop-color="#003D4D"/>
<stop offset="1" stop-color="#01E6D8"/>
</linearGradient>
</defs>
</svg>
