<svg width="603" height="100" viewBox="0 0 603 100" fill="none" xmlns="http://www.w3.org/2000/svg">
<g style="mix-blend-mode:luminosity">
<path d="M69.626 83.294H100.586V98H49.889L69.626 83.294ZM0.0950004 51.173C0.0950004 44.637 1.342 38.488 3.836 32.726C6.33 26.964 9.77 21.847 14.156 17.375C18.542 12.903 23.616 9.41999 29.378 6.926C35.226 4.34599 41.461 3.05599 48.083 3.05599C54.619 3.05599 60.768 4.34599 66.53 6.926C72.378 9.41999 77.495 12.903 81.881 17.375C86.353 21.847 89.836 26.964 92.33 32.726C94.91 38.488 96.2 44.637 96.2 51.173C96.2 57.795 94.91 63.987 92.33 69.749C89.836 75.511 86.353 80.628 81.881 85.1C77.495 89.486 72.378 92.926 66.53 95.42C60.768 97.828 54.619 99.032 48.083 99.032C41.375 99.032 35.14 97.828 29.378 95.42C23.616 92.926 18.542 89.529 14.156 85.229C9.77 80.843 6.33 75.769 3.836 70.007C1.342 64.159 0.0950004 57.881 0.0950004 51.173ZM15.575 51.173C15.575 55.731 16.392 60.031 18.026 64.073C19.746 68.115 22.111 71.684 25.121 74.78C28.131 77.79 31.614 80.155 35.57 81.875C39.526 83.595 43.826 84.455 48.47 84.455C52.942 84.455 57.113 83.595 60.983 81.875C64.939 80.155 68.379 77.79 71.303 74.78C74.227 71.77 76.506 68.244 78.14 64.202C79.86 60.16 80.72 55.817 80.72 51.173C80.72 46.615 79.86 42.315 78.14 38.273C76.42 34.231 74.098 30.705 71.174 27.695C68.25 24.599 64.81 22.191 60.854 20.471C56.898 18.751 52.641 17.891 48.083 17.891C43.525 17.891 39.268 18.751 35.312 20.471C31.356 22.191 27.873 24.599 24.863 27.695C21.939 30.791 19.66 34.36 18.026 38.402C16.392 42.444 15.575 46.701 15.575 51.173ZM134.21 64.202C134.21 67.9 135.156 71.297 137.048 74.393C139.026 77.403 141.606 79.854 144.788 81.746C147.97 83.552 151.539 84.455 155.495 84.455C159.623 84.455 163.321 83.552 166.589 81.746C169.857 79.854 172.437 77.403 174.329 74.393C176.221 71.297 177.167 67.9 177.167 64.202V4.08799H192.002V64.589C192.002 71.383 190.368 77.403 187.1 82.649C183.832 87.809 179.446 91.851 173.942 94.775C168.438 97.613 162.289 99.032 155.495 99.032C148.787 99.032 142.681 97.613 137.177 94.775C131.673 91.851 127.287 87.809 124.019 82.649C120.837 77.403 119.246 71.383 119.246 64.589V4.08799H134.21V64.202ZM204.461 98L245.999 0.217998H246.902L288.44 98H271.154L241.871 23.825L252.707 16.472L219.296 98H204.461ZM230.519 63.17H262.64L267.8 75.941H226.004L230.519 63.17ZM304.464 98V4.08799H331.167C340.541 4.08799 348.496 5.50699 355.032 8.34499C361.568 11.097 366.857 14.838 370.899 19.568C374.941 24.212 377.865 29.415 379.671 35.177C381.563 40.853 382.509 46.572 382.509 52.334C382.509 59.386 381.262 65.707 378.768 71.297C376.274 76.887 372.877 81.703 368.577 85.745C364.277 89.701 359.289 92.754 353.613 94.904C348.023 96.968 342.046 98 335.682 98H304.464ZM319.557 83.552H332.973C337.961 83.552 342.519 82.864 346.647 81.488C350.775 80.026 354.344 77.962 357.354 75.296C360.45 72.544 362.815 69.147 364.449 65.105C366.169 61.063 367.029 56.462 367.029 51.302C367.029 45.454 366.04 40.466 364.062 36.338C362.17 32.124 359.633 28.727 356.451 26.147C353.355 23.481 349.958 21.546 346.26 20.342C342.562 19.138 338.907 18.536 335.295 18.536H319.557V83.552ZM429.045 4.08799C434.205 4.08799 438.935 4.776 443.235 6.152C447.535 7.442 451.19 9.377 454.2 11.957C457.21 14.537 459.532 17.719 461.166 21.503C462.886 25.201 463.746 29.458 463.746 34.274C463.746 37.972 463.187 41.67 462.069 45.368C460.951 49.066 459.102 52.42 456.522 55.43C454.028 58.44 450.717 60.848 446.589 62.654C442.461 64.46 437.344 65.363 431.238 65.363H417.693V98H402.6V4.08799H429.045ZM431.109 50.915C434.463 50.915 437.258 50.399 439.494 49.367C441.73 48.249 443.45 46.873 444.654 45.239C445.944 43.605 446.847 41.885 447.363 40.079C447.965 38.187 448.266 36.424 448.266 34.79C448.266 33.242 448.008 31.565 447.492 29.759C446.976 27.867 446.116 26.104 444.912 24.47C443.708 22.75 441.988 21.331 439.752 20.213C437.602 19.095 434.893 18.536 431.625 18.536H417.693V50.915H431.109ZM447.363 59.816L471.357 98H453.942L429.432 60.203L447.363 59.816ZM489.02 4.08799H504.113V98H489.02V4.08799ZM522.223 4.08799H541.315L602.59 98H583.24L522.223 4.08799ZM520.933 98L553.957 46.271L561.052 61.106L539.509 98H520.933ZM561.826 40.724L583.24 4.08799H601.429L569.695 53.624L561.826 40.724Z" fill="#242323" fill-opacity="0.48"/>
</g>
</svg>
