<svg width="10" height="10" viewBox="0 0 10 10" fill="none" xmlns="http://www.w3.org/2000/svg">
<g clip-path="url(#clip0_55_2057)">
<path d="M4.06217 5.00001C4.06217 4.48224 4.48191 4.06251 4.99967 4.06251C5.51744 4.06251 5.93718 4.48224 5.93718 5.00001C5.93718 5.51778 5.51744 5.93751 4.99967 5.93751C4.48191 5.93751 4.06217 5.51778 4.06217 5.00001Z" fill="url(#paint0_linear_55_2057)"/>
<path fill-rule="evenodd" clip-rule="evenodd" d="M3.57685 1.3468C3.98536 -0.0846127 6.01395 -0.0846132 6.42245 1.3468C6.54902 1.7903 7.00466 2.05336 7.45203 1.94123C8.89592 1.5793 9.91021 3.3361 8.87483 4.40558C8.55403 4.73695 8.55403 5.26308 8.87483 5.59444C9.91021 6.66392 8.89592 8.42073 7.45203 8.0588C7.00466 7.94666 6.54902 8.20973 6.42245 8.65323C6.01395 10.0846 3.98536 10.0846 3.57685 8.65323C3.45028 8.20973 2.99464 7.94666 2.54727 8.0588C1.10338 8.42073 0.0890906 6.66392 1.12447 5.59444C1.44527 5.26308 1.44527 4.73695 1.12447 4.40558C0.0890909 3.3361 1.10338 1.5793 2.54727 1.94123C2.99464 2.05336 3.45028 1.7903 3.57685 1.3468ZM4.99967 3.43751C4.13673 3.43751 3.43717 4.13707 3.43717 5.00001C3.43717 5.86296 4.13673 6.56251 4.99967 6.56251C5.86262 6.56251 6.56218 5.86296 6.56218 5.00001C6.56218 4.13707 5.86262 3.43751 4.99967 3.43751Z" fill="url(#paint1_linear_55_2057)"/>
</g>
<defs>
<linearGradient id="paint0_linear_55_2057" x1="0.701172" y1="5.00001" x2="9.29813" y2="5.00001" gradientUnits="userSpaceOnUse">
<stop stop-color="#F2994A"/>
<stop offset="1" stop-color="#F2C94C"/>
</linearGradient>
<linearGradient id="paint1_linear_55_2057" x1="0.701172" y1="5.00001" x2="9.29813" y2="5.00001" gradientUnits="userSpaceOnUse">
<stop stop-color="#F2994A"/>
<stop offset="1" stop-color="#F2C94C"/>
</linearGradient>
<clipPath id="clip0_55_2057">
<rect width="10" height="10" fill="white"/>
</clipPath>
</defs>
</svg>
